<?xml version="1.0"?>
<svg width="1199" height="1280" xmlns="http://www.w3.org/2000/svg" xmlns:svg="http://www.w3.org/2000/svg" preserveAspectRatio="xMidYMid meet">
 <metadata>Created by potrace 1.15, written by Peter Selinger 2001-2017</metadata>
 <g class="layer">
  <title>Layer 1</title>
  <g fill="#000000" id="svg_1" transform="translate(0 1280) scale(0.1 -0.1)">
   <path d="m8680,12495c0,-12 -15,-15 -74,-15c-46,0 -76,-4 -78,-11c-2,-6 -27,-14 -56,-17c-35,-3 -52,-9 -52,-18c0,-9 -11,-14 -30,-14c-16,0 -30,-4 -30,-9c0,-5 -13,-12 -30,-16c-16,-4 -30,-10 -30,-15c0,-5 -12,-10 -27,-12c-16,-2 -27,-8 -25,-15c1,-8 -9,-13 -28,-13c-19,0 -30,-5 -30,-14c0,-8 -14,-17 -30,-21c-17,-4 -28,-11 -24,-16c3,-5 -4,-9 -15,-9c-12,0 -21,-7 -21,-15c0,-8 -7,-15 -15,-15c-8,0 -15,-7 -15,-16c0,-8 -4,-13 -8,-10c-5,3 -16,-4 -25,-15c-9,-10 -24,-19 -32,-19c-8,0 -15,-7 -15,-15c0,-8 -7,-15 -15,-15c-8,0 -15,-7 -15,-15c0,-8 -7,-15 -15,-15c-8,0 -15,-7 -15,-15c0,-8 -5,-15 -11,-15c-5,0 -7,-4 -4,-10c3,-5 1,-10 -4,-10c-6,0 -11,-7 -11,-15c0,-8 -7,-15 -15,-15c-8,0 -15,-7 -15,-15c0,-8 -7,-15 -15,-15c-8,0 -15,-7 -15,-15c0,-8 -4,-15 -9,-15c-5,0 -12,-13 -16,-30c-4,-16 -12,-28 -18,-27c-6,1 -13,-9 -15,-23c-2,-14 -10,-29 -18,-33c-8,-4 -14,-19 -14,-32c0,-13 -4,-25 -10,-27c-5,-1 -11,-15 -12,-30c-1,-16 -8,-28 -15,-28c-8,0 -13,-12 -13,-30c0,-20 -5,-30 -15,-30c-12,0 -15,-13 -15,-55c0,-42 -3,-55 -15,-55c-12,0 -15,-15 -15,-75c0,-60 -3,-75 -15,-75c-13,0 -15,-22 -15,-140c0,-118 2,-140 15,-140c12,0 15,-15 15,-75c0,-60 3,-75 15,-75c12,0 15,-13 15,-55c0,-42 3,-55 15,-55c10,0 15,-11 15,-35c0,-24 5,-35 15,-35c9,0 15,-9 15,-25c0,-14 5,-25 10,-25c6,0 10,-11 10,-25c0,-13 6,-28 14,-32c8,-4 16,-19 18,-33c2,-14 9,-24 15,-23c6,1 14,-11 18,-27c4,-17 11,-30 16,-30c5,0 9,-7 9,-15c0,-8 7,-15 15,-15c8,0 15,-7 15,-15c0,-8 5,-15 11,-15c6,0 5,-7 -3,-19c-34,-48 -1483,-1571 -1495,-1571c-7,0 -13,7 -13,15c0,13 -18,20 -42,16c-5,0 -8,6 -8,14c0,8 -7,15 -15,15c-9,0 -18,7 -21,15c-4,8 -17,15 -30,15c-15,0 -24,6 -24,15c0,8 -6,15 -14,15c-8,0 -16,7 -20,15c-3,8 -17,15 -31,15c-16,0 -25,6 -25,15c0,9 -9,15 -24,15c-13,0 -26,7 -30,15c-3,9 -18,15 -36,15c-18,0 -29,4 -25,10c4,6 -7,10 -24,10c-21,0 -31,5 -31,15c0,9 -9,15 -22,15c-36,0 -68,11 -62,21c4,7 -51,15 -78,10c-5,0 -8,6 -8,14c0,12 -13,15 -60,15c-47,0 -60,3 -60,15c0,12 -16,15 -85,15c-76,0 -106,10 -72,23c6,3 -79,6 -190,6c-174,1 -203,-1 -203,-14c0,-8 -3,-14 -7,-14c-5,1 -43,1 -85,0c-62,-1 -78,-4 -78,-16c0,-12 -13,-15 -60,-15c-40,0 -59,-4 -57,-12c1,-6 -15,-13 -38,-16c-22,-2 -43,-8 -46,-14c-3,-5 -25,-12 -48,-15c-25,-4 -41,-11 -41,-19c0,-9 -11,-14 -31,-14c-17,0 -28,-4 -24,-10c4,-6 -7,-10 -25,-10c-18,0 -33,-6 -36,-15c-4,-8 -17,-15 -30,-15c-15,0 -24,-6 -24,-15c0,-9 -9,-15 -25,-15c-14,0 -28,-7 -31,-15c-4,-8 -12,-15 -20,-15c-8,0 -14,-7 -14,-15c0,-9 -9,-15 -24,-15c-13,0 -26,-7 -30,-15c-3,-8 -13,-15 -23,-14c-19,0 -559,611 -557,629c1,5 2,17 2,26c1,8 6,13 11,10c5,-4 12,7 16,23c3,16 13,32 21,35c8,3 14,18 15,33c0,24 1,25 8,8c7,-17 9,-16 15,13c4,17 12,32 17,32c5,0 9,14 9,30c0,22 5,30 18,31c14,0 14,2 -3,9c-16,7 -17,9 -3,9c11,1 18,11 20,34c2,19 8,31 16,30c9,-2 12,16 12,67c0,54 4,72 15,76c12,5 15,29 15,129c0,100 -3,124 -15,129c-11,4 -15,23 -15,78c0,44 -4,68 -9,60c-7,-11 -10,-10 -15,3c-3,9 -6,26 -6,37c0,10 -7,26 -15,34c-8,9 -15,31 -15,50c0,19 -4,33 -9,30c-5,-4 -12,7 -16,24c-4,16 -11,30 -16,30c-5,0 -9,7 -9,15c0,8 -6,15 -14,15c-8,0 -17,14 -21,30c-4,17 -11,30 -16,30c-5,0 -9,7 -9,15c0,8 -7,15 -15,15c-8,0 -15,7 -15,15c0,8 -7,15 -15,15c-8,0 -15,7 -15,15c0,8 -7,15 -15,15c-8,0 -15,7 -15,16c0,8 -5,12 -10,9c-6,-3 -13,1 -16,9c-3,9 -12,16 -20,16c-8,0 -14,5 -14,10c0,17 -39,50 -60,50c-11,0 -20,7 -20,15c0,8 -7,15 -15,15c-8,0 -15,7 -15,15c0,10 -10,15 -30,15c-16,0 -30,4 -30,10c0,5 -18,13 -40,16c-24,4 -40,12 -40,20c0,10 -14,14 -47,14c-30,0 -43,3 -35,9c20,13 -9,21 -74,21c-30,0 -54,5 -54,10c0,6 -50,10 -131,10c-84,0 -128,-4 -124,-10c4,-6 -14,-10 -47,-10c-29,0 -64,-3 -77,-7c-23,-6 -23,-7 -5,-14c13,-5 4,-8 -28,-8c-36,-1 -48,-5 -48,-16c0,-13 -38,-22 -72,-16c-5,0 -8,-6 -8,-14c0,-13 -25,-21 -52,-16c-5,0 -8,-6 -8,-14c0,-8 -7,-15 -15,-15c-8,0 -15,-7 -15,-15c0,-10 -10,-15 -30,-15c-20,0 -30,-5 -30,-15c0,-8 -7,-15 -15,-15c-8,0 -15,-7 -15,-15c0,-8 -7,-15 -15,-15c-8,0 -15,-7 -15,-15c0,-8 -5,-15 -10,-15c-14,0 -57,-40 -44,-41c5,0 -1,-4 -14,-10c-13,-5 -20,-13 -17,-19c3,-5 -1,-10 -9,-10c-9,0 -16,-7 -16,-15c0,-8 -7,-15 -15,-15c-10,0 -15,-10 -15,-30c0,-20 -5,-30 -15,-30c-8,0 -15,-5 -15,-11c0,-6 -7,-17 -15,-25c-8,-9 -15,-24 -15,-35c0,-10 -5,-18 -12,-16c-13,2 -15,-4 -17,-53c-1,-19 -6,-30 -16,-30c-11,0 -15,-11 -15,-42c0,-32 -3,-39 -10,-28c-7,11 -10,2 -11,-32c-1,-27 -3,-52 -4,-58c-1,-5 -3,-19 -4,-31c0,-11 -5,-17 -11,-14c-6,4 -10,-42 -10,-130c0,-82 4,-134 9,-130c6,3 13,-25 17,-65c3,-38 11,-70 15,-70c5,0 9,-14 9,-30c0,-18 6,-33 15,-36c8,-4 15,-18 15,-34c0,-16 7,-35 15,-43c7,-8 17,-26 21,-41c3,-14 10,-26 15,-26c5,0 9,-7 9,-15c0,-8 7,-15 15,-15c9,0 15,-9 15,-25c0,-16 6,-25 15,-25c8,0 15,-6 15,-14c0,-8 7,-17 16,-20c8,-3 13,-10 10,-15c-3,-5 3,-11 14,-14c11,-3 19,-11 18,-19c-2,-7 3,-12 10,-11c6,2 12,-4 12,-12c0,-8 7,-15 15,-15c8,0 15,-7 15,-15c0,-8 7,-15 15,-15c8,0 15,-7 15,-15c0,-8 7,-15 15,-15c8,0 15,-4 15,-9c0,-5 13,-12 30,-16c16,-4 30,-13 30,-21c0,-8 7,-14 15,-14c8,0 15,-4 15,-10c0,-5 11,-10 25,-10c14,0 28,-6 31,-14c3,-7 23,-16 45,-20c21,-3 39,-11 39,-16c0,-6 10,-10 23,-10c12,0 33,-3 46,-7c23,-6 23,-7 5,-14c-11,-5 12,-8 58,-8c65,-1 76,-3 72,-16c-5,-13 13,-15 125,-15c110,0 131,2 131,15c0,12 15,15 73,15c43,0 67,4 59,9c-17,10 16,21 68,21c24,0 31,3 21,9c-11,7 -9,10 9,16c12,4 26,3 30,-2c5,-4 139,-154 298,-333c206,-231 288,-329 284,-342c-2,-10 -11,-18 -18,-18c-8,0 -14,-10 -14,-25c0,-16 -6,-25 -15,-25c-8,0 -15,-7 -15,-15c0,-8 -7,-15 -15,-15c-10,0 -15,-11 -16,-32c0,-27 -2,-29 -8,-13c-7,17 -9,16 -15,-12c-4,-18 -11,-33 -16,-33c-5,0 -11,-13 -15,-30c-4,-16 -11,-28 -17,-27c-6,1 -12,-9 -14,-23c-3,-13 -9,-27 -13,-30c-5,-3 -13,-18 -16,-33c-4,-15 -11,-27 -16,-27c-5,0 -9,-13 -9,-30c0,-20 -5,-30 -15,-30c-13,0 -22,-38 -16,-72c0,-5 -6,-8 -14,-8c-10,0 -15,-11 -15,-35c0,-21 -5,-35 -12,-35c-9,0 -8,-4 2,-10c13,-8 12,-10 -2,-10c-15,0 -18,-10 -18,-57c0,-36 -4,-53 -9,-45c-13,21 -21,-20 -22,-113c0,-48 -3,-72 -8,-61c-7,18 -8,18 -14,-5c-8,-30 -9,-336 -1,-366c4,-13 10,-20 15,-17c5,3 9,-25 9,-63c0,-37 3,-79 7,-92c6,-23 7,-23 14,-5c5,12 8,-3 8,-41l0,-60l-573,-367c-315,-202 -580,-370 -589,-374c-12,-4 -17,-1 -17,10c0,9 -7,16 -15,16c-8,0 -15,5 -15,11c0,14 -50,63 -73,72c-10,4 -15,11 -12,17c3,5 -1,10 -9,10c-9,0 -16,7 -16,15c0,8 -6,15 -14,15c-8,0 -16,7 -20,15c-3,8 -17,15 -31,15c-16,0 -25,6 -25,15c0,8 -7,15 -15,15c-8,0 -15,7 -15,15c0,10 -10,15 -31,15c-17,0 -28,4 -24,10c3,6 -3,10 -14,10c-11,0 -26,7 -35,15c-8,8 -26,16 -40,17c-14,1 -26,8 -26,15c0,8 -12,13 -30,13c-20,0 -30,5 -30,15c0,10 -15,15 -57,17c-40,2 -57,7 -55,16c1,9 -18,12 -73,12c-60,0 -75,3 -75,15c0,13 -23,15 -146,15c-126,0 -145,-2 -140,-15c4,-13 -8,-15 -74,-15c-64,0 -80,-3 -80,-15c0,-11 -12,-15 -49,-15c-34,0 -51,-4 -55,-15c-3,-9 -18,-15 -36,-15c-17,0 -29,-5 -28,-11c2,-6 -10,-13 -26,-16c-16,-2 -35,-11 -43,-19c-8,-7 -21,-14 -29,-14c-8,0 -14,-4 -14,-10c0,-5 -11,-10 -25,-10c-14,0 -28,-7 -31,-15c-4,-8 -12,-15 -20,-15c-8,0 -14,-7 -14,-15c0,-9 -9,-15 -25,-15c-16,0 -25,-6 -25,-15c0,-8 -7,-15 -15,-15c-8,0 -15,-7 -15,-15c0,-8 -9,-15 -20,-15c-11,0 -20,-5 -20,-11c0,-14 -25,-39 -39,-39c-6,0 -11,-6 -11,-14c0,-8 -12,-17 -28,-21c-15,-4 -22,-9 -15,-12c13,-5 -20,-43 -37,-43c-6,0 -10,-7 -10,-15c0,-8 -7,-15 -15,-15c-8,0 -15,-7 -15,-15c0,-8 -4,-15 -9,-15c-5,0 -12,-12 -16,-27c-3,-15 -17,-37 -31,-50c-13,-12 -24,-33 -24,-48c0,-16 -6,-25 -15,-25c-9,0 -15,-9 -15,-25c0,-16 -6,-25 -15,-25c-10,0 -15,-10 -15,-30c0,-20 -5,-30 -15,-30c-11,0 -15,-12 -15,-45c0,-31 -4,-44 -12,-43c-9,2 -15,-14 -18,-45c-3,-26 -9,-47 -15,-47c-12,0 -12,0 -14,-97c-2,-54 -5,-72 -11,-58c-5,12 -9,-44 -9,-145c0,-92 4,-156 8,-145c6,13 10,-9 12,-64c3,-55 9,-86 17,-89c7,-2 12,-22 12,-48c0,-32 4,-44 15,-44c11,0 15,-11 15,-40c0,-29 4,-40 15,-40c10,0 15,-10 15,-30c0,-20 5,-30 15,-30c10,0 15,-10 15,-30c0,-20 5,-30 15,-30c10,0 15,-10 15,-30c0,-20 5,-30 15,-30c8,0 15,-7 15,-15c0,-8 4,-15 10,-15c5,0 12,-11 16,-25c3,-14 10,-25 15,-25c5,0 9,-7 9,-15c0,-8 7,-15 15,-15c8,0 15,-7 15,-15c0,-8 7,-15 15,-15c8,0 15,-7 15,-15c0,-8 7,-15 15,-15c8,0 15,-7 15,-15c0,-8 7,-15 15,-15c8,0 15,-7 15,-15c0,-8 7,-15 16,-15c8,0 13,-4 10,-8c-5,-9 33,-46 49,-47c6,-1 9,-6 7,-13c-1,-7 5,-12 13,-12c9,0 18,-7 21,-15c4,-8 12,-15 20,-15c8,0 14,-8 15,-17c0,-15 2,-15 9,2c7,17 9,17 9,3c1,-10 8,-18 16,-18c8,0 15,-7 15,-15c0,-10 10,-15 30,-15c20,0 30,-5 30,-15c0,-9 9,-15 24,-15c13,0 26,-7 30,-15c3,-9 18,-15 36,-15c19,0 29,-5 28,-12c-2,-8 10,-14 30,-16c17,-2 32,-7 32,-13c0,-5 15,-9 33,-9c44,0 78,-10 71,-21c-3,-5 17,-9 44,-9c63,0 113,-10 106,-21c-3,-5 59,-9 140,-9c101,0 145,3 148,12c2,6 36,14 79,18c41,4 70,8 64,9c-21,5 32,20 75,21c35,1 40,3 25,10c-15,7 -10,9 23,9c28,1 45,6 48,16c4,9 19,15 35,15c19,0 29,5 29,14c0,9 12,16 28,18c15,2 26,8 24,15c-1,8 9,13 28,13c20,0 30,5 30,15c0,8 7,15 15,15c8,0 15,7 15,15c0,8 3,14 8,14c27,-5 52,3 52,16c0,8 7,15 15,15c8,0 15,7 15,15c0,8 6,14 13,13c6,-2 11,3 9,10c-1,6 4,12 11,12c14,0 53,41 49,53c-1,4 5,7 13,7c8,0 15,7 15,15c0,8 7,15 15,15c8,0 15,7 15,15c0,8 7,15 15,15c8,0 15,7 15,15c0,8 7,15 15,15c8,0 15,7 15,15c0,8 6,15 13,15c7,0 13,10 14,22c1,12 9,26 18,30c8,5 15,16 15,24c0,8 5,12 10,9c6,-4 10,7 10,24c0,21 5,31 15,31c13,0 20,18 16,43c-1,4 6,10 14,13c8,4 15,17 15,30c0,14 7,27 15,30c10,4 15,20 15,45c0,28 4,39 15,39c11,0 15,12 15,45c0,33 4,45 15,45c12,0 15,17 16,88c0,53 3,79 8,67c13,-31 24,142 15,232c-5,54 -9,72 -15,58c-4,-12 -8,17 -8,73c-1,75 -4,92 -16,92c-11,0 -15,12 -15,46c0,37 -3,45 -15,40c-12,-4 -15,3 -15,33l0,38l552,349c303,192 558,350 565,352c7,2 13,-4 13,-13c0,-9 4,-13 10,-10c6,3 10,-3 10,-14c0,-13 7,-21 18,-21c14,0 15,-2 2,-10c-10,-6 -11,-10 -2,-10c6,0 12,-7 12,-15c0,-8 7,-15 15,-15c8,0 15,-7 15,-15c0,-9 7,-18 15,-21c8,-4 15,-17 15,-30c0,-15 6,-24 15,-24c8,0 15,-7 15,-15c0,-8 7,-15 15,-15c8,0 15,-4 15,-10c0,-15 33,-50 48,-50c7,0 10,-5 7,-10c-3,-6 4,-14 17,-19c13,-6 19,-10 14,-10c-13,-1 30,-41 44,-41c5,0 10,-7 10,-15c0,-8 7,-15 15,-15c8,0 15,-7 15,-15c0,-8 7,-15 15,-15c8,0 15,-7 15,-15c0,-8 7,-15 15,-15c8,0 15,-7 15,-15c0,-9 9,-15 24,-15c13,0 26,-7 30,-15c3,-8 12,-15 21,-15c8,0 15,-7 15,-15c0,-9 9,-15 25,-15c16,0 25,-6 25,-15c0,-8 9,-15 21,-15c11,0 17,-4 14,-10c-4,-6 7,-10 24,-10c21,0 31,-5 31,-15c0,-13 18,-20 43,-16c4,0 7,-6 7,-14c0,-13 25,-21 53,-16c4,0 7,-6 7,-14c0,-10 10,-15 30,-15c20,0 30,-5 30,-15c0,-11 12,-15 45,-15c33,0 45,-4 45,-15c0,-11 12,-15 45,-15c31,0 44,-4 43,-12c-2,-9 15,-14 55,-16c39,-2 57,-7 57,-16c0,-10 22,-14 82,-15c51,-1 85,-7 90,-14c5,-8 53,-13 150,-15c157,-4 260,4 237,18c-9,6 20,10 76,12c65,2 89,6 88,16c-2,8 13,12 52,12c40,0 57,4 61,15c4,10 20,15 45,15c28,0 39,4 39,15c0,11 12,15 45,15c33,0 45,4 45,15c0,10 10,15 30,15c20,0 30,5 30,15c0,8 3,14 8,14c27,-5 52,2 46,13c-30,48 47,-42 232,-270c118,-147 223,-276 232,-287c39,-47 461,-568 531,-655c42,-52 82,-101 89,-109c8,-8 32,-39 55,-70c23,-30 55,-69 70,-85c36,-39 51,-66 37,-66c-5,0 -10,-8 -11,-17c0,-16 -1,-15 -8,2c-7,17 -9,16 -15,-10c-6,-22 -9,-26 -17,-14c-7,12 -9,11 -9,-3c0,-10 -7,-18 -15,-18c-8,0 -15,-7 -15,-15c0,-8 -8,-15 -17,-16c-10,0 -13,-3 -6,-6c8,-3 4,-12 -12,-27c-14,-13 -25,-28 -25,-35c0,-6 -7,-11 -15,-11c-8,0 -15,-7 -15,-15c0,-8 -7,-15 -15,-15c-8,0 -15,-7 -15,-15c0,-8 -7,-15 -15,-15c-8,0 -15,-7 -15,-15c0,-8 -4,-15 -9,-15c-5,0 -12,-12 -16,-27c-4,-19 -9,-23 -14,-14c-6,9 -10,5 -15,-13c-8,-31 -36,-67 -48,-60c-4,3 -8,-9 -8,-25c0,-21 -5,-31 -15,-31c-8,0 -15,-7 -15,-15c0,-8 -7,-15 -15,-15c-10,0 -15,-10 -15,-30c0,-20 -5,-30 -15,-30c-9,0 -15,-9 -15,-25c0,-16 -6,-25 -15,-25c-8,0 -15,-7 -15,-16c0,-8 -7,-22 -15,-30c-8,-9 -15,-24 -15,-35c0,-11 -4,-18 -9,-15c-5,4 -12,-7 -16,-24c-4,-16 -11,-30 -16,-30c-5,0 -12,-18 -15,-40c-4,-22 -10,-40 -15,-40c-4,0 -9,-15 -11,-32c-2,-20 -8,-32 -15,-30c-9,1 -13,-10 -13,-33c0,-24 -5,-35 -15,-35c-11,0 -15,-11 -15,-40c0,-29 -4,-40 -15,-40c-8,0 -14,-3 -14,-7c1,-5 1,-29 0,-55c-1,-36 -5,-48 -16,-48c-12,0 -15,-14 -16,-62c0,-40 -3,-56 -8,-44c-7,18 -8,18 -14,-5c-4,-13 -7,-47 -7,-76c0,-29 -5,-53 -11,-55c-7,-2 -13,-48 -17,-118c-3,-63 -8,-106 -12,-95c-10,29 -18,-227 -10,-340c4,-55 8,-86 10,-70c2,17 6,-28 10,-100c5,-81 12,-131 19,-133c6,-2 11,-27 11,-60c0,-31 5,-64 10,-72c9,-13 10,-13 12,0c1,8 4,-12 7,-45c4,-40 10,-59 19,-57c10,2 17,-53 11,-95c0,-3 6,-10 15,-15c10,-6 16,-23 16,-48c0,-29 4,-40 15,-40c10,0 15,-10 15,-30c0,-20 5,-30 15,-30c10,0 15,-10 15,-30c0,-17 5,-30 13,-30c8,0 7,-4 -3,-10c-9,-6 -10,-10 -3,-10c6,0 14,-13 18,-30c4,-16 10,-30 15,-30c5,0 11,-14 15,-30c4,-17 10,-30 15,-30c5,0 11,-13 15,-30c4,-16 11,-30 16,-30c5,0 9,-7 9,-15c0,-8 7,-15 15,-15c10,0 15,-10 15,-30c0,-20 5,-30 15,-30c9,0 15,-9 15,-25c0,-16 6,-25 15,-25c8,0 15,-9 15,-20c0,-11 7,-20 15,-20c9,0 15,-9 15,-25c0,-16 6,-25 15,-25c8,0 15,-7 15,-15c0,-8 5,-15 10,-15c6,0 10,-7 10,-15c0,-8 6,-15 14,-15c8,0 17,-14 21,-30c4,-17 11,-28 16,-24c5,3 9,-2 9,-10c0,-9 7,-16 15,-16c8,0 15,-7 15,-15c0,-8 7,-15 15,-15c8,0 15,-9 15,-20c0,-11 7,-20 15,-20c10,0 15,-10 16,-27c0,-24 1,-25 8,-8c7,17 9,15 16,-15c6,-29 9,-32 15,-15c6,17 8,16 14,-10c6,-22 9,-26 17,-14c7,12 9,11 9,-3c0,-20 56,-78 76,-78c8,0 14,-7 14,-15c0,-8 7,-15 15,-15c8,0 15,-4 15,-10c0,-5 7,-10 15,-10c8,0 15,-7 15,-15c0,-8 7,-15 15,-15c8,0 15,-7 15,-15c0,-8 7,-15 15,-15c8,0 15,-7 15,-15c0,-8 7,-15 15,-15c8,0 15,-6 15,-12c0,-9 4,-8 10,2c8,13 10,12 10,-2c0,-10 6,-18 14,-18c8,0 16,-7 20,-15c3,-8 12,-15 21,-15c8,0 14,-5 13,-11c-2,-6 8,-13 22,-15c14,-3 27,-9 28,-14c2,-6 10,-10 18,-10c8,0 14,-7 14,-15c0,-8 7,-16 15,-16c35,-3 40,-5 37,-17c-1,-7 5,-12 13,-12c9,0 18,-7 22,-16c5,-13 7,-13 14,-2c7,10 9,10 9,1c0,-7 9,-13 20,-13c11,0 20,-7 20,-15c0,-9 9,-15 25,-15c16,0 25,-6 25,-15c0,-10 10,-15 30,-15c20,0 30,-5 30,-15c0,-9 10,-15 26,-15c14,0 32,-7 40,-15c9,-8 29,-15 45,-15c19,0 29,-5 29,-15c0,-10 10,-15 29,-15c16,0 31,-4 33,-10c2,-5 20,-10 41,-12c21,-1 41,-8 45,-15c4,-6 25,-13 46,-15c21,-1 40,-8 43,-15c3,-8 24,-13 59,-13c41,0 54,-4 54,-15c0,-12 14,-15 70,-15c56,0 70,-3 70,-15c0,-12 18,-15 104,-15c66,0 106,-4 108,-11c5,-14 210,-24 331,-14c54,4 95,11 91,16c-3,5 40,9 100,9c88,0 106,3 106,15c0,12 14,15 70,15c56,0 70,3 70,15c0,12 13,15 60,15c47,0 60,3 60,15c0,8 3,14 8,14c31,-5 82,3 80,13c-2,6 14,13 37,15c22,3 42,9 43,14c2,5 17,9 33,9c19,0 29,5 29,15c0,9 9,15 23,15c35,0 67,11 61,21c-4,8 25,14 49,10c4,0 7,6 7,14c0,10 10,15 30,15c20,0 30,5 30,15c0,10 10,15 31,15c24,0 30,4 25,15c-4,10 1,15 14,15c11,0 20,6 20,13c0,9 2,9 9,-1c7,-11 9,-11 14,2c4,9 13,16 22,16c8,0 15,6 15,13c0,7 10,13 22,14c12,1 26,9 30,18c5,8 16,15 24,15c8,0 12,5 9,10c-4,6 7,10 24,10c21,0 31,5 31,15c0,8 7,15 15,15c8,0 15,7 15,15c0,8 7,15 15,15c8,0 15,8 15,18c0,14 2,15 10,2c6,-10 10,-11 10,-2c0,6 7,12 15,12c8,0 15,7 15,15c0,8 7,15 15,15c8,0 15,7 15,15c0,8 9,15 21,15c12,0 17,4 14,11c-4,6 2,13 14,16c11,3 18,9 15,14c-3,5 2,9 10,9c9,0 16,6 16,14c0,8 12,17 27,21c19,4 23,9 14,14c-9,6 -6,10 12,15c15,3 29,17 35,33c6,16 11,21 12,13c1,-8 8,-1 15,15c11,24 14,26 15,10c1,-14 6,-9 15,15c10,25 14,29 15,15c1,-16 3,-15 12,8c5,15 14,27 19,27c5,0 9,9 9,20c0,11 7,20 15,20c8,0 15,7 15,15c0,8 7,15 15,15c8,0 15,7 15,15c0,8 5,14 12,13c12,-3 14,2 17,37c0,8 8,15 16,15c8,0 15,7 15,15c0,8 7,15 15,15c8,0 15,7 15,15c0,8 4,15 9,15c5,0 12,14 16,30c4,17 11,28 16,24c5,-3 9,2 9,10c0,8 7,19 15,24c9,4 17,18 18,30c1,12 7,22 14,22c8,0 13,12 13,30c0,20 5,30 15,30c8,0 15,7 15,15c0,8 7,15 15,15c10,0 15,10 15,30c0,18 5,30 13,30c7,0 14,12 15,26c1,14 9,32 17,40c8,9 15,29 15,45c0,19 5,29 15,29c10,0 15,10 15,30c0,17 5,30 10,30c6,0 10,14 10,30c0,20 5,30 15,30c10,0 15,11 16,30c2,46 3,50 16,58c6,4 12,27 14,52c3,55 10,70 20,44c5,-12 8,4 8,44c1,48 4,62 16,62c12,0 15,14 15,69c0,47 4,71 13,73c8,3 14,44 18,134c3,71 7,116 8,99l3,-30l8,30c8,35 11,337 3,377c-3,15 -9,25 -14,22c-5,-3 -9,41 -9,100c0,80 -4,108 -15,120c-11,10 -15,36 -15,86c0,60 -3,71 -15,66c-12,-4 -15,4 -15,44c0,41 -3,50 -17,51c-15,0 -15,2 2,9c17,7 17,9 3,9c-14,1 -18,10 -18,46c0,33 -4,45 -15,45c-11,0 -15,11 -15,43c0,27 -3,37 -9,29c-6,-10 -10,-8 -14,10c-4,12 -7,33 -7,46c0,13 -4,20 -10,17c-6,-4 -10,6 -11,22c-1,33 -17,77 -19,53c-1,-8 -6,3 -11,25c-5,21 -14,42 -19,45c-5,3 -11,17 -14,30c-2,14 -9,24 -15,22c-6,-1 -11,11 -11,28c0,20 -5,30 -15,30c-8,0 -15,9 -15,20c0,11 -7,20 -15,20c-9,0 -15,9 -15,25c0,16 -6,25 -15,25c-10,0 -15,10 -15,30c0,20 -5,30 -15,30c-8,0 -15,7 -15,15c0,8 -7,15 -15,15c-8,0 -14,3 -14,8c4,24 -2,52 -11,47c-5,-3 -10,1 -10,9c0,9 -7,16 -15,16c-8,0 -15,7 -15,15c0,9 -7,18 -15,21c-8,4 -15,17 -15,30c0,15 -6,24 -15,24c-8,0 -15,7 -15,15c0,8 -7,15 -15,15c-8,0 -15,7 -15,15c0,8 -7,15 -15,15c-8,0 -15,7 -15,15c0,8 -7,15 -15,15c-8,0 -14,3 -14,8c1,4 1,16 0,27c-1,16 -3,17 -10,6c-8,-12 -11,-9 -16,12c-4,15 -13,27 -21,27c-8,0 -14,5 -14,10c0,17 -38,50 -43,37c-3,-7 -8,0 -12,15c-5,21 -13,28 -31,28c-15,0 -24,6 -24,15c0,8 -7,15 -15,15c-8,0 -15,7 -15,15c0,8 -7,15 -16,15c-8,0 -12,5 -9,11c4,6 -2,13 -14,16c-11,3 -18,9 -15,14c3,5 -3,12 -13,16c-10,4 -28,17 -41,30c-12,14 -31,25 -42,26c-11,1 -20,7 -20,14c0,7 -7,13 -15,13c-8,0 -15,7 -15,15c0,10 -10,15 -30,15c-20,0 -30,5 -30,15c0,8 -7,15 -15,15c-8,0 -15,7 -15,15c0,10 -10,15 -31,15c-19,0 -28,4 -24,11c4,6 -2,13 -14,16c-12,3 -21,10 -21,17c0,6 -5,4 -10,-4c-8,-13 -10,-12 -10,3c0,10 -8,17 -21,17c-11,0 -17,5 -14,10c4,6 -7,10 -24,10c-21,0 -31,5 -31,15c0,9 -9,15 -25,15c-13,0 -28,6 -32,14c-4,8 -19,16 -33,18c-14,2 -24,9 -22,16c1,8 -13,12 -43,12c-33,0 -45,4 -45,15c0,10 -10,15 -30,15c-20,0 -30,5 -30,15c0,11 -12,15 -45,15c-30,0 -44,4 -43,12c3,13 -3,15 -58,17c-19,0 -33,5 -30,10c7,11 -28,21 -77,21c-23,0 -36,4 -35,12c3,14 -1,15 -84,17c-45,1 -59,4 -48,11c10,7 -10,10 -66,10c-107,0 -185,10 -159,21c11,4 -81,7 -205,7c-124,0 -214,-3 -200,-7c21,-6 18,-8 -24,-14c-27,-4 -82,-7 -123,-7c-47,0 -72,-4 -68,-10c5,-8 -102,-17 -137,-11c-5,0 -8,-6 -8,-14c0,-11 -11,-15 -37,-15c-49,0 -84,-10 -77,-21c4,-7 -51,-15 -78,-10c-5,0 -8,-6 -8,-14c0,-11 -12,-15 -45,-15c-33,0 -45,-4 -45,-15c0,-10 -10,-15 -30,-15c-20,0 -30,-5 -30,-15c0,-11 -11,-15 -40,-15c-29,0 -40,-4 -40,-15c0,-10 -10,-15 -29,-15c-16,0 -31,-6 -35,-15c-3,-8 -17,-15 -31,-15c-16,0 -25,-6 -25,-15c0,-10 -10,-15 -31,-15c-17,0 -28,-4 -24,-10c3,-5 -3,-10 -14,-10c-13,0 -21,-7 -21,-17c0,-15 -2,-16 -10,-3c-5,8 -10,10 -10,4c0,-7 -9,-14 -21,-17c-12,-3 -18,-10 -14,-16c4,-7 -5,-11 -24,-11c-16,0 -31,-5 -33,-11c-4,-13 -1231,1472 -1236,1496c-2,8 3,15 12,15c9,0 16,7 16,15c0,8 7,15 15,15c8,0 15,5 15,10c0,6 7,10 15,10c8,0 15,5 15,10c0,6 18,27 40,49c22,21 40,44 40,50c0,6 7,11 15,11c8,0 15,7 15,15c0,8 7,15 15,15c13,0 20,19 13,36c-2,3 5,10 15,15c9,6 17,17 17,24c0,8 7,15 15,15c9,0 15,9 15,25c0,16 6,25 15,25c8,0 15,7 15,15c0,8 4,15 9,15c5,0 12,14 16,30c4,17 11,30 16,30c5,0 9,6 9,14c0,8 8,22 17,32c9,9 19,26 20,38c2,11 8,23 13,24c6,2 10,17 10,33c0,19 5,29 15,29c10,0 15,11 16,38c1,20 1,40 0,45c0,4 6,7 14,7c10,0 15,10 15,30c0,17 5,30 13,30c9,0 9,2 -1,9c-11,7 -11,9 2,14c11,5 16,20 16,52c0,33 4,45 15,45c8,0 14,3 14,8c-5,32 4,183 10,168c7,-18 8,-18 14,5c4,13 7,96 7,184c0,88 -3,171 -7,184c-6,23 -7,23 -14,5c-4,-11 -8,20 -8,73c-1,67 -5,96 -16,107c-8,8 -15,32 -15,55c0,32 -4,41 -17,41c-15,0 -16,2 -3,10c10,6 11,10 3,10c-8,0 -13,14 -13,35c0,26 -4,35 -17,36c-15,0 -15,2 2,9c17,7 17,9 3,9c-13,1 -18,9 -18,31c0,20 -5,30 -15,30c-10,0 -15,10 -15,29c0,16 -4,31 -10,33c-5,2 -11,13 -13,26c-2,13 -9,27 -15,31c-6,4 -13,18 -16,31c-2,14 -8,24 -14,23c-6,-1 -13,11 -17,27c-4,17 -10,30 -15,30c-5,0 -12,15 -16,33c-6,28 -8,29 -15,12c-6,-16 -8,-14 -8,13c-1,20 -6,32 -15,32c-7,0 -16,9 -19,20c-4,15 159,195 743,823c747,801 749,803 784,799c19,-2 34,-9 33,-16c-1,-6 10,-12 26,-14c15,-2 27,-9 27,-18c0,-9 11,-14 30,-14c20,0 30,-5 30,-15c0,-10 10,-15 30,-15c17,0 30,-4 30,-9c0,-5 23,-11 51,-13c28,-3 54,-10 58,-15c3,-6 37,-12 75,-15c42,-2 71,-9 74,-16c5,-17 289,-17 294,0c2,6 36,14 79,18c41,4 70,8 64,9c-21,5 32,20 73,20c26,1 41,5 37,11c-4,6 7,10 25,10c17,0 33,6 36,14c3,7 24,17 47,21c34,6 38,8 22,15c-17,6 -14,8 15,11c21,3 34,9 32,17c-1,7 9,12 28,12c20,0 30,5 30,15c0,9 9,15 25,15c16,0 25,6 25,15c0,8 9,15 21,15c11,0 18,4 15,8c-7,12 29,40 61,48c24,7 25,8 8,14c-17,6 -15,8 13,14c18,4 29,12 26,17c-3,6 3,13 15,16c11,3 18,9 15,14c-3,5 4,13 16,17c12,4 21,11 21,15c-1,4 -1,15 -1,25c0,14 2,15 9,3c8,-12 11,-9 16,12c4,15 11,27 16,27c5,0 9,7 9,15c0,8 7,15 15,15c8,0 15,7 15,15c0,8 7,15 15,15c10,0 15,10 15,30c0,20 5,30 15,30c9,0 15,9 15,25c0,16 6,25 15,25c10,0 15,10 15,30c0,20 5,30 15,30c10,0 15,10 15,30c0,19 5,29 13,28c7,-2 13,9 15,26c2,16 10,35 18,43c8,8 14,34 14,61c0,34 3,43 10,32c7,-11 10,1 11,43c1,31 3,62 4,67c1,6 3,19 4,31c0,11 6,17 11,14c6,-4 10,47 10,145c0,98 -4,149 -10,145c-5,-3 -10,-5 -10,-3c-4,70 -15,144 -21,146c-5,2 -9,23 -9,47c0,25 -6,50 -15,59c-8,8 -15,26 -15,40c0,16 -6,26 -15,26c-10,0 -15,10 -15,30c0,20 -5,30 -15,30c-10,0 -15,10 -15,30c0,20 -5,30 -15,30c-9,0 -15,9 -15,25c0,16 -6,25 -15,25c-10,0 -15,10 -15,33c0,23 -3,28 -9,18c-8,-12 -11,-9 -16,12c-4,15 -13,27 -21,27c-8,0 -14,7 -14,15c0,8 -4,15 -10,15c-5,0 -13,12 -16,26c-5,19 -9,22 -15,12c-7,-10 -9,-8 -10,7c-1,11 -1,23 0,28c0,4 -5,7 -12,7c-14,0 -53,41 -50,52c2,3 -12,10 -30,14c-27,6 -29,8 -12,14c17,6 15,8 -12,14c-18,4 -33,12 -33,17c0,5 -7,9 -16,9c-10,0 -14,6 -10,15c4,10 -1,15 -14,15c-11,0 -20,4 -20,10c0,5 -11,12 -25,16c-14,3 -25,12 -25,20c0,9 -11,14 -30,14c-19,0 -29,5 -28,13c2,7 -11,13 -32,16c-29,3 -32,5 -15,11c16,7 14,9 -15,10c-19,2 -38,2 -42,1c-5,0 -8,5 -8,13c0,9 -12,16 -32,18c-18,2 -31,8 -28,13c3,6 -20,13 -55,16c-32,4 -61,12 -63,18c-2,7 -32,11 -78,11c-61,0 -72,3 -68,15c5,13 -14,15 -140,15c-123,0 -146,-2 -146,-15z" fill="#e05d38" id="svg_2"/>
  </g>
 </g>
</svg>